<?xml version="1.0" encoding="UTF-8"?>
<svg width="400px" height="89px" viewBox="0 0 400 89" version="1.1" xmlns="http://www.w3.org/2000/svg" xmlns:xlink="http://www.w3.org/1999/xlink">
    <!-- Generator: Sketch 53.2 (72643) - https://sketchapp.com -->
    <title>Loca</title>
    <desc>Created with Sketch.</desc>
    <g id="Loca" stroke="none" stroke-width="1" fill="none" fill-rule="evenodd">
        <g id="L">
            <path d="M44.0156041,43.9843959 C19.7150751,43.9843959 0.0156041144,63.6838669 0.0156041144,87.9843959 C21.9407742,88.0260069 21.9407742,88.0260069 44.0156041,87.9843959 C44.0156041,68.6982995 44.0156041,68.6982995 44.0156041,43.9843959 Z" id="Oval" fill="#13CEFF" transform="translate(22.015604, 66.000000) rotate(-90.000000) translate(-22, -66.000000) "></path>
            <rect id="Rectangle" fill="#00217B" x="44" y="44" width="44" height="44"></rect>
            <rect id="Rectangle" fill="#175BEF" x="0" y="0" width="44" height="44"></rect>
        </g>
        <g id="O" transform="translate(103.000000, 0.000000)">
            <path d="M44.0156041,43.9843959 C19.7150751,43.9843959 0.0156041144,63.6838669 0.0156041144,87.9843959 C21.9407742,88.0260069 21.9407742,88.0260069 44.0156041,87.9843959 C44.0156041,68.6982995 44.0156041,68.6982995 44.0156041,43.9843959 Z" id="Oval" fill="#FF1159" transform="translate(22.015604, 66.000000) rotate(-90.000000) translate(-22, -66.000000) "></path>
            <path d="M88,44 C63.699471,44 44,63.699471 44,88 C65.9251701,88.041611 65.9251701,88.041611 88,88 C88,68.7139036 88,68.7139036 88,44 Z" id="Oval" fill="#175BEF" transform="translate(66.000000, 66.015604) rotate(-180.000000) translate(-66.000000, -66.015604) "></path>
            <path d="M44,2.48689958e-14 C19.699471,2.48689958e-14 3.55271368e-15,19.699471 3.55271368e-15,44 C21.9251701,44.041611 21.9251701,44.041611 44,44 C44,24.7139036 44,24.7139036 44,-2.48689958e-14 Z" id="Oval" fill="#13CEFF" transform="translate(22.000000, 22) rotate(0.000000) translate(-22.000000, -22) "></path>
            <path d="M87.9843959,0.0156041144 C63.6838669,0.0156041144 43.9843959,19.7150751 43.9843959,44.0156041 C65.909566,44.0572151 65.909566,44.0572151 87.9843959,44.0156041 C87.9843959,24.7295077 87.9843959,24.7295077 87.9843959,0.0156041144 Z" id="Oval" fill="#00217B" transform="translate(66, 22) rotate(-270.000000) translate(-66, -22) "></path>
        </g>
        <g id="C" transform="translate(207.000000, 0.000000)">
            <path d="M44.0156041,43.9843959 C19.7150751,43.9843959 0.0156041144,63.6838669 0.0156041144,87.9843959 C21.9407742,88.0260069 21.9407742,88.0260069 44.0156041,87.9843959 C44.0156041,68.6982995 44.0156041,68.6982995 44.0156041,43.9843959 Z" id="Oval" fill="#13CEFF" transform="translate(22.015604, 66.000000) rotate(-90.000000) translate(-22, -66.000000) "></path>
            <path d="M44,0 C19.699471,0 0,19.699471 0,44 C21.9251701,44.041611 21.9251701,44.041611 44,44 C44,24.7139036 44,24.7139036 44,0 Z" id="Oval" fill="#175BEF" transform="translate(22.000000, 22.015604) rotate(-360.000000) translate(-22.000000, -22.015604) "></path>
            <rect id="Rectangle" fill="#FF1159" x="44" y="0" width="44" height="44"></rect>
            <rect id="Rectangle" fill="#00217B" x="44" y="44" width="44" height="44"></rect>
        </g>
        <g id="A" transform="translate(311.000000, 0.000000)">
            <path d="M44.0156041,43.9843959 C19.7150751,43.9843959 0.0156041144,63.6838669 0.0156041144,87.9843959 C21.9407742,88.0260069 21.9407742,88.0260069 44.0156041,87.9843959 C44.0156041,68.6982995 44.0156041,68.6982995 44.0156041,43.9843959 Z" id="Oval" fill="#175BEF" transform="translate(22.015604, 66.000000) rotate(-90.000000) translate(-22.015604, -66.000000) "></path>
            <path d="M44,0 C19.699471,0 0,19.699471 0,44 C21.9251701,44.041611 21.9251701,44.041611 44,44 C44,24.7139036 44,24.7139036 44,0 Z" id="Oval" fill="#00217B" transform="translate(22.000000, 22.015604) rotate(-360.000000) translate(-22.000000, -22.015604) "></path>
            <path d="M88.0156041,-0.0156041144 C63.7150751,-0.0156041144 44.0156041,19.6838669 44.0156041,43.9843959 C65.9407742,44.0260069 65.9407742,44.0260069 88.0156041,43.9843959 C88.0156041,24.6982995 88.0156041,24.6982995 88.0156041,-0.0156041144 Z" id="Oval" fill="#13CEFF" transform="translate(66.015604, 22.000000) rotate(-270.000000) translate(-66.015604, -22.000000) "></path>
            <rect id="Rectangle" fill="#FF1159" x="44" y="44" width="44" height="44"></rect>
        </g>
    </g>
</svg>